# xmcd
#
# Track frame offsets:
#	150
#	21447
#	42744
#	70925
#	90148
#	110368
#	132585
#	150885
#	176405
#	219606
#
# Disc length: 3376 seconds
#
# Revision: 0
# Processed by: cddbd v1.5.2PL0 Copyright (c) Steve Scherf et al.
# Submitted via: EasyCDDAExtractor 10.2.0.1
#
DISCID=820d2e0a
DTITLE=Mark Knopler and Emmylow Harris - Live at AHOY in Rotterdam
DYEAR=2006
DGENRE=Country
TTITLE0=Right Now
TTITLE1=Red Staggerwing
TTITLE2=Michelangelo
TTITLE3=I Dug Up A Diamond
TTITLE4=Born To Run
TTITLE5=Red Dirt Girl
TTITLE6=Intros
TTITLE7=Done With Bonaparte
TTITLE8=Romeo And Juliet
TTITLE9=Song For Sonny Liston
EXTD=
EXTT0=
EXTT1=
EXTT2=
EXTT3=
EXTT4=
EXTT5=
EXTT6=
EXTT7=
EXTT8=
EXTT9=
PLAYORDER=
